<svg id="Layer_1" enable-background="new 0 0 256 256" height="512" viewBox="0 0 256 256" width="512" xmlns="http://www.w3.org/2000/svg"><g><path d="m249.5 135.027c0 1.93-1.56 3.49-3.5 3.49h-236c-1.94 0-3.5-1.56-3.5-3.49v-19.97c0-.77.15-1.52.44-2.22h240.68c1.17 1.08 1.87 2.61 1.87 4.27z" fill="#cf941c"/><path d="m57.88 168.587h-40.05v-15.03h35.86c.48 2.58 1.05 5.06 1.73 7.52.69 2.49 1.5 4.96 2.46 7.51z" fill="#f0c020"/><path d="m55.42 161.077c.69 2.49 1.5 4.96 2.46 7.51h-8.5c-1.839-5.254-2.868-9.88-3.82-15.03h8.13c.48 2.58 1.05 5.06 1.73 7.52z" fill="#cf941c"/><path d="m238.17 153.557v15.03h-69.12c.31-.58.62-1.17.92-1.77 8.77-.26 16.79-2.49 23.03-5.74 4-2.05 7.5-4.61 10.33-7.52z" fill="#f0c020"/><path d="m214.49 153.557c-6.283 6.456-9.648 10.553-18.61 15.03h-26.83c.31-.58.62-1.17.92-1.77 8.77-.26 16.79-2.49 23.03-5.74 4-2.05 7.5-4.61 10.33-7.52z" fill="#cf941c"/><path d="m75.66 194.267h-65.66c-1.93 0-3.5-1.56-3.5-3.5v-18.68c0-1.94 1.57-3.5 3.5-3.5h47.88c3.71 9.75 9.63 19.42 17.78 25.68z" fill="#cf941c"/><path d="m75.66 194.267h-11.71c-6.567-7.249-11.431-16.461-14.57-25.68h8.5c3.71 9.75 9.63 19.42 17.78 25.68z" fill="#b35034"/><path d="m249.5 172.087v18.68c0 1.94-1.57 3.5-3.5 3.5h-132.41c4.27-3.3 7.99-7.57 10.94-12.1 5.08 4.08 30.13 13.17 44.52-13.58h76.95c1.93 0 3.5 1.56 3.5 3.5z" fill="#cf941c"/><path d="m195.88 168.587c-6.29 3.15-13.46 5.17-20.99 5.92-7.87 13.25-18.15 18.13-26.24 19.76h-35.06c4.27-3.3 7.99-7.57 10.94-12.1 5.08 4.08 30.13 13.17 44.52-13.58z" fill="#b35034"/><path d="m53.69 153.557c.48 2.58 1.05 5.06 1.73 7.52.69 2.49 1.5 4.96 2.46 7.51 3.71 9.75 9.63 19.42 17.78 25.68 12.09 9.33 26.24 9.04 37.93 0 4.27-3.3 7.99-7.57 10.94-12.1 5.08 4.08 30.13 13.17 44.52-13.58.31-.58.62-1.17.92-1.77 8.774-.262 16.789-2.486 23.03-5.74 4-2.05 7.5-4.61 10.33-7.52z" fill="#13bf6d"/><path d="m203.33 153.557c-2.83 2.91-6.33 5.47-10.33 7.52h-137.58c-.68-2.46-1.25-4.94-1.73-7.52z" fill="#139c6d"/><path d="m17.83 138.527h220.34v15.03h-220.34z" fill="#fc5d3d"/><path d="m17.83 138.527h220.34v6.64h-220.34z" fill="#b35034"/><path d="m247.61 112.84h-240.67c.24-.6.58-1.15 1.02-1.64l50.34-56.95c.91-1.04 2.35-1.44 3.67-1.02l35.03 11.14c-4.95 12.28 4.08 25.85 17.49 25.85 8.89 0 16.35-6.17 18.32-14.47l112.61 35.81c.83.27 1.58.71 2.19 1.28z" fill="#f2e1d6"/><path d="m114.49 52.54c-7.93 0-14.7 4.9-17.49 11.82v.01c-4.95 12.28 4.08 25.85 17.49 25.85 8.89 0 16.35-6.17 18.32-14.47 2.84-11.73-6.09-23.21-18.32-23.21z" fill="#fc5d3d"/><path d="m112.258 82.278c-.033-1.381 1.059-2.526 2.439-2.56 6.778-.165 10.626-8.047 6.341-13.488-.854-1.085-.667-2.657.418-3.511 1.084-.854 2.657-.667 3.511.417 6.823 8.668.748 21.318-10.148 21.58-1.28.062-2.526-.99-2.561-2.438zm-8.197-2.579c-.218-.274-.426-.561-.625-.854-.773-1.144-.473-2.698.671-3.472 1.146-.773 2.698-.473 3.472.671.127.189.262.372.401.549.857 1.083.675 2.655-.407 3.513-1.082.857-2.655.675-3.512-.407z" fill="#ffcbc2"/><g fill="#823a26"><path d="m203.334 183.928c-1.381 0-2.5-1.119-2.5-2.5v-1.167c0-1.381 1.119-2.5 2.5-2.5s2.5 1.119 2.5 2.5v1.167c0 1.381-1.119 2.5-2.5 2.5z"/><path d="m36.5 184.511c-1.381 0-2.5-1.119-2.5-2.5v-1.167c0-1.381 1.119-2.5 2.5-2.5s2.5 1.119 2.5 2.5v1.167c0 1.381-1.119 2.5-2.5 2.5z"/><path d="m227.333 125.992c-1.381 0-2.5-1.119-2.5-2.5v-1.323c0-1.381 1.119-2.5 2.5-2.5s2.5 1.119 2.5 2.5v1.323c0 1.381-1.119 2.5-2.5 2.5z"/><path d="m211.903 130.334c-1.381 0-2.5-1.119-2.5-2.5v-1.323c0-1.381 1.119-2.5 2.5-2.5s2.5 1.119 2.5 2.5v1.323c0 1.381-1.119 2.5-2.5 2.5z"/><path d="m27.75 126.917c-1.381 0-2.5-1.119-2.5-2.5v-1.323c0-1.381 1.119-2.5 2.5-2.5s2.5 1.119 2.5 2.5v1.323c0 1.381-1.119 2.5-2.5 2.5z"/></g><path d="m191.75 106.417h-4c-1.381 0-2.5-1.119-2.5-2.5s1.119-2.5 2.5-2.5h4c1.381 0 2.5 1.119 2.5 2.5s-1.119 2.5-2.5 2.5zm-14 0h-148c-1.381 0-2.5-1.119-2.5-2.5s1.119-2.5 2.5-2.5h148c1.381 0 2.5 1.119 2.5 2.5s-1.119 2.5-2.5 2.5z" fill="#fff"/><path d="m209.235 67.275c-4.288-1.417-8.716-2.655-11.202-13.364-2.29 9.864-5.958 11.632-11.202 13.364 8.552 2.826 9.842 7.505 11.202 13.364 2.343-10.1 6.219-11.718 11.202-13.364z" fill="#f0c020"/><path d="m176.322 37.881c-4.288-1.417-8.716-2.655-11.202-13.364-2.29 9.864-5.958 11.632-11.202 13.364 8.552 2.826 9.842 7.505 11.202 13.364 2.344-10.1 6.22-11.718 11.202-13.364z" fill="#f0c020"/><path d="m46.711 218.119c-4.288-1.417-8.716-2.655-11.202-13.364-2.29 9.864-5.958 11.632-11.202 13.364 8.552 2.826 9.842 7.505 11.202 13.364 2.344-10.099 6.22-11.717 11.202-13.364z" fill="#f0c020"/><path d="m131.5 62.92c1.14-.771 1.439-2.32.68-3.46l-.01-.01c-.74-1.101-2.36-1.421-3.47-.671-1.14.768-1.441 2.326-.67 3.471.792 1.161 2.353 1.433 3.47.67z"/><circle cx="182.64" cy="194.27" r="2.5"/><path d="m33.35 86.24c.91-1.03.81-2.61-.22-3.53-.99-.88-2.65-.771-3.53.22-.91 1.03-.81 2.62.22 3.53 1.064.924 2.61.813 3.53-.22z"/><path d="m246 141.02c3.3-.01 5.99-2.7 6-6l-.01-17.92c0-3.815-2.57-6.902-5.811-7.93-.622-.195-109.887-34.934-110.516-35.134.183-1.44.216-2.807.136-3.996-.09-1.36-1.28-2.42-2.65-2.34-1.394.083-2.423 1.285-2.34 2.649.578 9.299-6.739 17.37-16.32 17.37-11.48-.025-19.517-11.636-15.17-22.42 3.598-8.932 13.857-12.674 22.23-8.66 1.21.58 2.76.03 3.34-1.17.59-1.24.07-2.74-1.18-3.34-1.028-.496-2.084-.9-3.163-1.22l4.088-23.719c.234-1.361-.679-2.654-2.039-2.889-1.362-.23-2.654.679-2.889 2.039l-4.089 23.729c-8.538-.431-16.133 4.135-19.938 11.249-.25-.079-32.708-10.39-32.96-10.469-2.164-.72-4.685-.094-6.3 1.75l-20.19 22.84c-.901 1.001-.856 2.571.21 3.53 1.039.905 2.635.809 3.53-.22l20.2-22.851c.25-.29.7-.399 1.03-.29 1.106.349 31.604 10.044 32.651 10.377-3.506 13.267 6.441 26.71 20.639 26.733 9.078 0 16.866-5.639 19.955-13.822 18.149 5.765 44.787 14.231 98.892 31.439h-221.278l14.672-16.606c.91-1.029.81-2.609-.22-3.52-1-.88-2.65-.78-3.53.21l-16.9 19.12c-1.28 1.443-2.08 3.437-2.08 5.511v19.97c.01 3.3 2.7 5.99 6 6h5.332c0 26.852-.001-1.795-.001 25.066h-5.333c-3.307 0-5.998 2.69-5.998 5.997v18.688c0 3.307 2.69 5.997 5.998 5.997h64.838c12.446 9.193 27.096 9.236 39.579.001h58.225c1.37 0 2.5-1.12 2.5-2.5s-1.13-2.5-2.5-2.5h-52.558c1.823-1.887 3.555-3.962 5.148-6.192 12.459 6.779 33.067 6.697 45.278-14.49 68.406 0 73.995-.007 75.493-.007.55.01 1 .449 1 1v18.689c0 .55-.45 1-1 1h-53.36c-1.38 0-2.5 1.12-2.5 2.5s1.12 2.5 2.5 2.5h53.359c3.31 0 6-2.689 6-6v-18.689c0-3.301-2.69-5.99-6-5.99h-5.33c0-26.468-.002 1.741-.002-25.07zm-237-6v-19.683h237.474c.325.516.517 1.119.517 1.763l.01 17.92c0 .561-.44 1-1 1-46.685 0-189.806 0-236 0-.561 0-1.001-.44-1.001-1zm195.365 21.037h31.305v10.03h-47.997c6.019-2.106 12.129-5.575 16.692-10.03zm31.303-5c-3.393 0-176.13 0-181.978 0h-33.358v-10.035h215.336zm-215.338 5h31.305c.712 3.42 1.665 6.927 2.703 10.029h-34.008zm-11.33 34.714v-18.688c0-.55.447-.997.998-.997.532 0 7.415.001 46.18.001 2.566 6.335 6.682 14.185 12.961 20.682h-59.141c-.551 0-.998-.448-.998-.998zm117.096-10.553c-1.132-.91-2.842-.671-3.66.585-2.977 4.569-6.564 8.541-10.375 11.486-10.906 8.434-23.943 8.435-34.877-.005-10.769-8.27-17.445-22.762-20.421-36.228h139.72c-7.761 5.407-17.373 7.986-26.586 8.261-.921.027-1.751.559-2.162 1.383-12.608 25.171-35.281 19.624-41.639 14.518z"/><path d="m61.333 93v-1.166c0-1.381-1.119-2.5-2.5-2.5s-2.5 1.119-2.5 2.5v1.166c0 1.381 1.119 2.5 2.5 2.5s2.5-1.119 2.5-2.5z"/><path d="m153.75 96.376v-1.167c0-1.381-1.119-2.5-2.5-2.5s-2.5 1.119-2.5 2.5v1.167c0 1.381 1.119 2.5 2.5 2.5s2.5-1.119 2.5-2.5z"/><path d="m77 78.417v-1.167c0-1.381-1.119-2.5-2.5-2.5s-2.5 1.119-2.5 2.5v1.167c0 1.381 1.119 2.5 2.5 2.5s2.5-1.119 2.5-2.5z"/><path d="m94.625 170.67c-1.381 0-2.5 1.119-2.5 2.5v1.323c0 1.381 1.119 2.5 2.5 2.5s2.5-1.119 2.5-2.5v-1.323c0-1.381-1.119-2.5-2.5-2.5z"/><path d="m195.428 81.243c.638 2.746 4.571 2.752 5.21 0 2.089-9.001 5.17-10.02 9.436-11.429 2.443-.808 2.437-4.273 0-5.078-4.071-1.35-7.291-2.193-9.436-11.43-.636-2.745-4.571-2.752-5.209 0-2.09 9.003-5.171 10.021-9.436 11.43-2.443.807-2.437 4.273 0 5.078 7.347 2.428 8.177 6.009 9.435 11.429zm2.615-19.359c1.394 2.622 3.009 4.282 4.674 5.418-1.747 1.175-3.303 2.789-4.624 5.23-1.059-1.883-2.574-3.663-4.885-5.192 1.836-1.203 3.464-2.874 4.835-5.456z"/><path d="m162.515 51.849c.638 2.746 4.571 2.752 5.21 0 2.089-9.002 5.17-10.02 9.436-11.429 2.443-.808 2.437-4.273 0-5.078-4.071-1.35-7.291-2.192-9.436-11.43-.636-2.744-4.571-2.752-5.209 0-2.09 9.003-5.171 10.021-9.436 11.43-2.443.807-2.437 4.273 0 5.078 7.348 2.428 8.178 6.008 9.435 11.429zm2.616-19.359c1.394 2.622 3.009 4.282 4.674 5.418-1.747 1.175-3.303 2.79-4.624 5.23-1.059-1.883-2.574-3.663-4.885-5.192 1.836-1.204 3.463-2.875 4.835-5.456z"/><path d="m32.904 232.088c.638 2.746 4.571 2.752 5.21 0 2.089-9.002 5.17-10.02 9.436-11.429 2.443-.807 2.437-4.273 0-5.078-4.071-1.349-7.291-2.192-9.436-11.43-.636-2.744-4.571-2.752-5.209 0-2.09 9.003-5.171 10.021-9.436 11.43-2.443.808-2.437 4.273 0 5.078 7.348 2.428 8.178 6.008 9.435 11.429zm2.616-19.359c1.394 2.623 3.009 4.282 4.674 5.418-1.747 1.175-3.303 2.79-4.624 5.23-1.059-1.883-2.574-3.663-4.885-5.192 1.836-1.204 3.463-2.875 4.835-5.456z"/></g></svg>